<!DOCTYPE svg PUBLIC "-//W3C//DTD SVG 1.1//EN" "http://www.w3.org/Graphics/SVG/1.1/DTD/svg11.dtd">
<!-- Uploaded to: SVG Repo, www.svgrepo.com, Transformed by: SVG Repo Mixer Tools -->
<svg width="800px" height="800px" viewBox="0 0 36 36" xmlns="http://www.w3.org/2000/svg" xmlns:xlink="http://www.w3.org/1999/xlink" aria-hidden="true" role="img" class="iconify iconify--twemoji" preserveAspectRatio="xMidYMid meet" fill="#000000">
<g id="SVGRepo_bgCarrier" stroke-width="0"/>
<g id="SVGRepo_tracerCarrier" stroke-linecap="round" stroke-linejoin="round"/>
<g id="SVGRepo_iconCarrier">
<path fill="#0d2435" d="M36 32a4 4 0 0 1-4 4H4a4 4 0 0 1-4-4V4a4 4 0 0 1 4-4h28a4 4 0 0 1 4 4v28z"/>
<path fill="#FFF" d="M12.513 9.342c0-1.271.868-2.418 2.419-2.418h7.937c1.365 0 2.078 1.054 2.078 2.14c0 1.054-.683 2.139-2.078 2.139h-5.705v4.527h4.806c1.488 0 2.232 1.054 2.232 2.108c0 1.085-.744 2.17-2.232 2.17h-4.806v6.76c0 1.551-.992 2.418-2.326 2.418s-2.326-.867-2.326-2.418V9.342z"/>
</g>
</svg>